<!-- logo.com -->
<svg
  xmlns="http://www.w3.org/2000/svg"
  version="1.1"
  xmlns:xlink="http://www.w3.org/1999/xlink"
  xmlns:svgjs="http://svgjs.dev/svgjs"
  width="2000"
  height="1500"
  viewBox="0 0 2000 1500"
>
  <rect width="2000" height="1500" fill="#ff0000"></rect>
  <g
    transform="matrix(0.484027105517909,0,0,0.484027105517909,515.9799148308986,250.40485829959522)"
  >
    <svg
      viewBox="0 0 239 247"
      data-background-color="#ff0000"
      preserveAspectRatio="xMidYMid meet"
      height="2066"
      width="2000"
      xmlns="http://www.w3.org/2000/svg"
      xmlns:xlink="http://www.w3.org/1999/xlink"
    >
      <g
        id="tight-bounds"
        transform="matrix(1,0,0,1,-0.001733232856054201,-0.09999999999999432)"
      >
        <svg
          viewBox="0 0 239.00346646571214 247.2"
          height="247.2"
          width="239.00346646571214"
        >
          <g>
            <svg
              viewBox="0 0 239.00346646571214 247.2"
              height="247.2"
              width="239.00346646571214"
            >
              <g>
                <svg
                  viewBox="0 0 239.00346646571214 247.2"
                  height="247.2"
                  width="239.00346646571214"
                >
                  <g id="textblocktransform">
                    <svg
                      viewBox="0 0 239.00346646571214 247.2"
                      height="247.2"
                      width="239.00346646571214"
                      id="textblock"
                    >
                      <g>
                        <svg
                          viewBox="0 0 239.00346646571214 247.2"
                          height="247.2"
                          width="239.00346646571214"
                        >
                          <g transform="matrix(1,0,0,1,0,0)">
                            <svg
                              width="239.00346646571214"
                              viewBox="2.37 -32.4 31.319999999999997 32.4"
                              height="247.2"
                              data-palette-color="#ffffff"
                            >
                              <path
                                d="M27.22 0L22.88 0 22.88-12.13 8.86-12.13 2.37-18.63 2.37-25.93 8.86-32.4 12.52-32.4 12.52-20.9 27.42-20.9 33.69-14.4 33.69-6.47 27.22 0ZM22.88-26.56L14.23-26.56 14.23-32.4 27.2-32.4 32.81-26.76 32.81-23.32 22.88-23.32 22.88-26.56ZM2.37-6.47L2.37-9.72 13.16-9.72 13.16-5.86 21.17-5.86 21.17 0 7.81 0 2.37-6.47Z"
                                opacity="1"
                                transform="matrix(1,0,0,1,0,0)"
                                fill="#ffffff"
                                class="wordmark-text-0"
                                data-fill-palette-color="primary"
                                id="text-0"
                              ></path>
                            </svg>
                          </g>
                        </svg>
                      </g>
                    </svg>
                  </g>
                </svg>
              </g>
            </svg>
          </g>
          <defs></defs>
        </svg>
        <rect
          width="239.00346646571214"
          height="247.2"
          fill="none"
          stroke="none"
          visibility="hidden"
        ></rect>
      </g>
    </svg>
  </g>
</svg>